<?xml version="1.0" encoding="UTF-8"?>
<!DOCTYPE svg PUBLIC "-//W3C//DTD SVG 1.1//EN" "http://www.w3.org/Graphics/SVG/1.1/DTD/svg11.dtd">
<!-- Creator: CorelDRAW 2019 (64-Bit Evaluation Version) -->
<svg xmlns="http://www.w3.org/2000/svg" xml:space="preserve" width="1814px" height="456px" version="1.1" style="shape-rendering:geometricPrecision; text-rendering:geometricPrecision; image-rendering:optimizeQuality; fill-rule:evenodd; clip-rule:evenodd"
viewBox="0 0 1814 456.41"
 xmlns:xlink="http://www.w3.org/1999/xlink"
 xmlns:xodm="http://www.corel.com/coreldraw/odm/2003">
 <defs>
  <style type="text/css">
   <![CDATA[
    .fil0 {fill:#081E60}
    .fil1 {fill:#EA1C24}
    .fil2 {fill:white}
   ]]>
  </style>
 </defs>
 <g id="Layer_x0020_1">
  <metadata id="CorelCorpID_0Corel-Layer"/>
  <g id="_2538378911104">
   <path class="fil0" d="M615.54 250.43c36.45,-1.6 95.41,-9.65 95.81,36.07 0.37,43.14 -58.07,42.54 -95.42,36.08l-0.39 -72.15zm1106.29 -110.25c20.37,1.65 32.35,4.67 49.59,-12.56 10.26,-10.25 6.1,-6.09 10.9,-18.46l-43.32 0.52 -17.17 30.5zm-714.66 219.35c-0.75,-54.69 -15.06,-150.05 48.65,-153.44 67.86,-3.63 45.92,103.92 44.75,153.2l54.76 -0.85c-2.29,-43.62 8.58,-146.67 -13.96,-174.14 -30.66,-37.37 -106.83,-24.15 -133.48,12.68l-6.33 -29.22 -46.85 -0.38 -2.63 191.3 55.09 0.85zm806.83 -1.02l0 -144.19c0,-54.25 -60.27,-60.02 -100.22,-58.27 -66.05,2.91 -71.94,10.47 -106.69,39.51 -0.07,-39.28 -8.28,-30.46 -53.03,-28.01l0.18 191.75 56.31 0.1c-3.82,-53.88 -12.35,-121.2 24.36,-147.91 22.81,-16.59 82.94,-36.42 110.1,-17.33 10.02,7.04 13.23,14.33 6.3,24.9 -19.98,30.51 -98.88,14.06 -123.47,60.85 -32.83,63.37 42.46,92.68 105.53,79.39l7.31 -32.25c-29.39,6.07 -48.05,10.68 -63.72,-11.4 -7.1,-41.93 48.88,-42.22 82.48,-59.45l-0.43 102.13 54.99 0.18zm-596.56 -150.81c35.19,-6.46 61.61,-13.47 83.79,12.45 19.6,22.91 17.44,66.29 1.62,88.47 -16.52,23.18 -54.07,19.28 -72.2,-1.2 -19.69,-22.24 -15.72,-67.57 -13.21,-99.72zm267.06 11.37c-9.63,16.03 -87.13,26.02 -116.69,48.19 -6.7,-127.13 -99.3,-101.14 -202.89,-94.54l0.34 235.96 52.97 -0.13 -1.52 -73.58c16.85,13.02 31.51,31.35 76.5,28.18 35.87,-2.65 49.37,-20.41 62.49,-38.47 20.76,32.2 54.63,46.33 93.04,38.5 13.16,-2.68 16.82,-12.47 21.86,-36.29 -23.77,4.29 -87.31,7.43 -60.18,-35.21 8.91,-14 62.38,-28.5 81.14,-34.34l-3.22 100.53 56.02 0.26c-6.72,-132.81 39.25,-217.19 -113.24,-200.8 -46.32,4.98 -54.65,-0.58 -54.86,45.05 15.71,-4.36 138.85,-34.27 108.24,16.69zm-869.48 -73.39c33.62,-1.07 93.4,-10.67 87.98,36.45 -4.22,36.76 -53.52,33.31 -87.29,31.02l-0.69 -67.47zm124.24 -17.72c-30.37,-29.76 -121.78,-18.29 -177.41,-17.01l2.63 249.09c94.9,-0.62 137.12,15.61 196.41,-33.66 8.16,24.82 26.03,33.36 57.34,35.69 43.19,3.22 47.09,1.54 53.11,-34.38 -24.8,2.51 -41.67,9.92 -58.7,-6.45 -23.7,-38.71 45.01,-52.99 79.42,-64.19l-2.66 100.91 55.49 0c-2.87,-210.16 17.08,-218.1 -164.37,-191.92l-4.11 37.15c24.74,-7.03 66.33,-23.52 92.75,-14.07 16.36,5.86 26.21,19.34 11.17,33.36 -23.85,22.25 -88.66,18.25 -116.25,49.97 -10.52,-21.55 -13.4,-33.4 -49.38,-41.64 38.26,-17.82 63.16,-65.04 24.56,-102.85z"/>
   <rect class="fil1" width="456.41" height="456.41"/>
   <path class="fil2" d="M90.62 377.28c29.7,-4.48 53.62,-10.57 81.79,-20.92 37.42,-13.75 67.01,-31.48 96.22,-57.43 7.92,-8.39 16.81,-19.25 21.4,-29.83 5.81,-13.37 6.46,-27.69 -2.81,-39.71 -6.05,-7.84 -22.14,-17.8 -31.94,-18.91 -7.48,11.58 -22.72,24.48 -33.27,33.62 -12.81,11.1 -24.82,18.82 -39.11,27.74 -17.21,10.74 -48.11,25.44 -67.82,32.67 -5.94,2.18 -19.77,6.06 -24.46,8.82l0 63.95zm-0.01 -110.02c14.07,-2.39 49.1,-19.34 63.21,-26.06 10.21,-4.87 46.58,-27.89 51.96,-36.34 -11.1,-1.76 -49.66,4.72 -62.05,7.49 -9.28,2.09 -18.21,4.75 -27.32,7.48 -8.9,2.66 -17.18,6.27 -25.8,9.04l0 38.39zm121.29 117.98c40.32,2.45 104.05,2.37 133.36,-29.63 21.37,-23.34 27.17,-65.59 12.9,-93.96 -3.22,-6.42 -11.99,-18.91 -18.35,-22.17 0.07,39.75 -20.03,63.87 -46.02,90.86 -4.78,4.95 -13.07,11.41 -18.64,15.76 -16.31,12.76 -33.94,23.85 -52.39,33.24 -2.72,1.39 -8.69,4.26 -10.86,5.9zm21.96 -220.86c1.41,-7.83 2.59,-15.08 -0.56,-22.63 -16.13,-38.75 -85.88,-36.4 -120.44,-31.44 -5.1,0.73 -17.78,2.36 -21.98,4.11 -0.87,2.93 -0.24,27.86 -0.24,33.13 0.01,11.04 -0.12,22.18 0.05,33.21 4.35,-0.7 11.15,-3.19 15.91,-4.36 40.27,-9.85 67.29,-13.68 108.8,-12.87 3.8,0.07 16.07,1.78 18.46,0.85zm-33.31 -92.57c1.08,0.77 14.88,4.22 17.75,5.18 38.95,13.1 71.43,42.86 60.37,87.29 -0.7,2.82 -2.22,6.69 -2.15,9.46 18.4,7.03 45.58,19.74 54.24,38.64 37.45,-16.64 40.66,-86.15 14.03,-117.98 -26.39,-31.53 -106.42,-23.53 -144.24,-22.59z"/>
  </g>
 </g>
</svg>
