<?xml version="1.0" standalone="no"?>
<!DOCTYPE svg PUBLIC "-//W3C//DTD SVG 20010904//EN"
 "http://www.w3.org/TR/2001/REC-SVG-20010904/DTD/svg10.dtd">
<svg version="1.0" xmlns="http://www.w3.org/2000/svg"
 width="640.000000pt" height="640.000000pt" viewBox="0 0 640.000000 640.000000"
 preserveAspectRatio="xMidYMid meet">

<g transform="translate(0.000000,640.000000) scale(0.100000,-0.100000)"
fill="#000000" stroke="none">
<path d="M3671 5145 c-59 -34 -236 -217 -201 -208 47 13 165 6 221 -11 70 -22
155 -88 209 -161 22 -30 45 -55 50 -55 17 0 127 -110 165 -165 21 -30 41 -52
45 -50 4 3 20 35 35 72 21 52 29 90 32 163 l5 95 -62 45 c-35 24 -94 80 -133
125 -85 97 -124 129 -194 155 -72 27 -118 25 -172 -5z"/>
<path d="M3372 4900 c-40 -9 -125 -66 -196 -131 -28 -25 -78 -65 -111 -89 -33
-24 -91 -73 -130 -110 -80 -77 -125 -104 -250 -155 -49 -20 -117 -50 -150 -67
-73 -37 -207 -119 -202 -124 2 -2 33 9 68 25 205 92 289 100 449 44 100 -36
111 -37 235 -38 115 0 159 5 260 32 15 4 17 2 9 -7 -9 -9 -1 -21 31 -51 41
-38 45 -39 112 -39 247 0 422 -178 382 -388 -13 -72 -66 -162 -123 -209 -33
-26 -37 -35 -34 -67 l3 -36 55 36 c81 54 118 92 137 143 22 57 22 167 0 271
-14 66 -21 79 -54 105 -20 17 -65 57 -99 91 -146 143 -201 394 -132 600 20 59
27 69 48 72 22 2 91 -13 145 -32 31 -12 -55 63 -100 86 -22 12 -62 27 -90 34
-54 15 -209 17 -263 4z m228 -94 c0 -24 -112 -128 -181 -169 -68 -40 -161 -73
-234 -83 -44 -5 -45 -5 -45 21 0 41 93 126 192 175 115 56 268 88 268 56z
m-253 -324 c-9 -9 -44 -32 -79 -50 -132 -67 -284 -69 -403 -3 -25 14 -31 20
-15 15 14 -3 63 -13 110 -22 76 -13 93 -13 172 1 49 8 116 29 151 45 73 36 86
38 64 14z"/>
<path d="M4280 4744 c0 -50 -36 -154 -75 -219 l-36 -59 20 -66 c12 -36 25 -83
29 -104 l8 -40 58 3 c58 3 107 -10 138 -36 15 -13 17 -10 23 42 4 31 4 89 1
128 -14 146 -55 255 -126 337 l-39 45 -1 -31z"/>
<path d="M2038 4494 c44 -31 27 -39 -70 -36 -81 3 -99 0 -138 -20 -49 -25 -90
-84 -90 -130 0 -15 11 -39 26 -55 15 -15 21 -20 14 -10 -8 10 -8 17 -2 17 6 0
9 21 8 50 -2 28 1 50 6 50 5 0 6 -6 2 -12 -4 -7 4 -3 17 8 53 47 87 53 154 29
84 -30 179 -4 211 57 14 27 13 28 -8 28 -13 0 -38 9 -56 20 -18 11 -47 20 -64
20 -32 0 -32 0 -10 -16z"/>
<path d="M2540 4263 c-153 -70 -357 -124 -438 -115 -23 2 -56 -1 -73 -8 l-30
-13 33 -28 c29 -24 31 -30 21 -47 -7 -11 -19 -46 -27 -79 -18 -72 -32 -303
-18 -303 10 0 88 81 114 120 26 38 22 4 -7 -57 -13 -29 -44 -75 -69 -101 l-46
-49 0 -84 c0 -46 -7 -113 -16 -149 -15 -62 -31 -320 -19 -309 3 4 7 43 9 87
l4 81 48 42 c162 138 244 309 244 503 0 107 -21 197 -66 289 -18 37 -32 67
-31 67 29 0 133 -27 175 -46 30 -13 58 -24 62 -24 5 0 19 17 31 38 38 62 90
122 147 168 45 37 50 44 30 43 -12 0 -48 -12 -78 -26z"/>
<path d="M4226 4158 c-9 -79 -33 -155 -51 -162 -8 -3 -16 -2 -19 2 -2 4 -43 7
-91 6 -68 0 -88 2 -95 15 -18 34 -21 -38 -6 -143 9 -59 16 -120 16 -136 0 -16
4 -31 8 -34 14 -9 52 6 45 17 -4 6 0 8 11 4 9 -4 15 -3 12 2 -3 4 14 36 38 70
24 34 49 75 56 90 11 27 14 28 98 34 106 6 121 12 129 47 5 27 6 27 81 27 58
-1 87 3 117 18 51 25 85 83 85 145 l0 45 -16 -31 c-35 -72 -120 -78 -240 -17
-43 22 -92 43 -109 47 -16 4 -37 9 -46 12 -13 4 -18 -7 -23 -58z"/>
<path d="M3390 4139 c-30 -4 -106 -24 -168 -43 -141 -45 -252 -72 -317 -80
-45 -5 -47 -4 -15 5 85 24 240 82 240 90 0 12 -40 11 -118 -1 -118 -20 -221
-63 -311 -133 -91 -71 -103 -78 -120 -64 -11 8 -11 5 2 -9 9 -11 17 -23 17
-26 0 -3 18 -37 40 -74 49 -83 76 -167 86 -264 7 -69 7 -71 25 -53 10 10 54
81 99 158 87 150 122 193 185 231 106 62 365 122 471 108 64 -8 65 -5 24 77
-17 33 -28 64 -25 68 2 5 -5 11 -18 15 -25 6 -22 7 -97 -5z"/>
<path d="M4357 3883 c-9 -2 -15 -9 -12 -14 9 -14 22 -11 29 6 3 8 4 14 3 14
-1 -1 -10 -3 -20 -6z"/>
<path d="M2534 3765 c-26 -49 -49 -120 -64 -197 -6 -32 -16 -58 -21 -58 -6 0
-7 -6 -3 -12 6 -9 3 -9 -9 0 -14 12 -16 11 -12 -8 2 -13 6 -24 8 -26 9 -9 62
55 83 100 24 53 48 178 42 218 -3 20 -6 18 -24 -17z"/>
<path d="M3650 3760 c0 -5 -10 -19 -22 -30 -15 -14 -28 -46 -39 -96 -18 -85
-21 -83 69 -43 49 23 50 30 21 117 -19 58 -29 75 -29 52z"/>
<path d="M3356 3624 c-9 -24 -7 -102 3 -108 10 -7 191 36 191 45 0 3 -21 9
-46 13 -58 7 -138 42 -129 56 3 5 2 10 -3 10 -6 0 -13 -7 -16 -16z"/>
<path d="M3516 3504 c-9 -8 -16 -19 -16 -23 0 -20 23 -71 32 -71 5 0 7 4 4 9
-5 8 3 45 19 84 9 22 -17 23 -39 1z"/>
<path d="M2407 3350 c-37 -40 -71 -92 -101 -154 -31 -66 -55 -102 -80 -121
-49 -37 -53 -57 -21 -111 22 -38 31 -45 53 -42 22 2 33 15 57 64 39 78 106
163 188 239 l66 59 -45 48 c-24 26 -44 54 -44 63 0 27 -16 17 -73 -45z"/>
<path d="M1966 3018 c-3 -7 -7 -26 -11 -43 -3 -16 -18 -54 -31 -83 -30 -63
-28 -82 9 -100 43 -21 94 -8 112 28 22 42 19 48 -25 55 -38 6 -59 32 -45 54 3
5 1 12 -5 16 -6 4 -8 11 -4 16 7 13 14 69 8 69 -2 0 -6 -6 -8 -12z"/>
<path d="M1010 2588 c0 -13 115 -127 143 -143 20 -11 14 -28 -118 -375 -24
-63 -57 -151 -73 -195 -17 -44 -33 -88 -37 -97 -7 -17 18 -18 446 -18 487 0
500 1 614 54 119 54 235 202 251 320 l7 46 -82 0 c-44 0 -81 3 -81 8 0 4 16
16 36 27 105 56 223 245 224 358 l0 27 -665 0 c-500 0 -665 -3 -665 -12z m870
-193 c0 -37 -55 -90 -111 -106 -39 -11 -236 -15 -246 -5 -2 2 7 30 20 62 l23
59 55 5 c30 3 100 6 157 8 l102 4 0 -27z m-120 -314 c0 -30 -45 -77 -91 -95
-46 -19 -269 -35 -269 -20 0 9 38 113 46 126 3 5 75 8 160 8 145 0 154 -1 154
-19z"/>
<path d="M2360 2594 c0 -24 76 -102 144 -148 19 -13 15 -24 -77 -270 -113
-299 -117 -328 -63 -382 l34 -34 411 0 c397 0 413 1 456 21 51 24 100 76 123
128 16 38 80 211 138 371 19 52 53 141 74 197 22 56 40 106 40 112 0 8 -56 11
-186 9 l-186 -3 -37 -96 c-21 -53 -75 -198 -121 -323 l-84 -226 -153 0 -153 0
19 48 c10 26 35 92 55 147 21 55 57 152 81 215 53 141 85 229 85 235 0 3 -135
5 -300 5 -165 0 -300 -3 -300 -6z"/>
<path d="M3660 2594 c0 -21 50 -80 100 -119 l58 -44 -55 -148 c-64 -172 -76
-250 -49 -330 22 -65 75 -127 140 -161 l51 -27 306 -3 307 -3 31 86 c17 47 31
90 31 96 0 5 -91 9 -228 9 -216 0 -229 1 -250 20 -39 37 -37 45 108 430 32 85
61 165 65 178 l6 22 -310 0 c-171 0 -311 -3 -311 -6z"/>
<path d="M4550 2589 c0 -12 117 -129 144 -145 19 -10 17 -17 -38 -164 -51
-135 -58 -162 -58 -229 -2 -135 58 -226 179 -271 51 -19 74 -20 344 -18 l290
3 35 90 c18 50 34 91 34 93 0 1 -102 2 -228 2 -246 0 -263 3 -276 54 -6 24 22
122 64 226 12 30 39 102 60 160 21 58 47 129 59 158 l21 52 -315 0 c-213 0
-315 -3 -315 -11z"/>
<path d="M1265 1633 c-97 -13 -136 -46 -179 -153 -20 -50 -36 -92 -36 -95 0
-3 77 -5 170 -5 101 0 170 -4 170 -10 0 -5 -5 -21 -12 -35 l-11 -25 -178 0
-177 0 -16 -40 c-9 -22 -16 -45 -16 -51 0 -7 75 -10 238 -7 218 3 241 5 284
25 25 11 54 32 63 46 14 21 75 170 75 183 0 2 -76 4 -170 4 -99 0 -170 4 -170
9 0 5 4 21 10 35 l10 26 159 0 159 0 16 47 c9 26 16 48 16 50 0 4 -368 1 -405
-4z"/>
<path d="M1690 1635 c0 -3 41 -62 90 -131 50 -70 90 -129 90 -133 0 -4 -31
-38 -70 -76 -38 -38 -70 -73 -70 -77 0 -14 135 -8 191 8 50 14 67 29 249 212
l195 197 -109 3 -110 3 -67 -67 -67 -66 -53 55 c-37 37 -67 59 -94 66 -40 11
-175 16 -175 6z"/>
<path d="M2479 1630 c-97 -17 -130 -47 -175 -163 l-31 -82 168 -3 c93 -1 169
-7 169 -12 0 -5 -4 -20 -10 -34 l-10 -26 -178 0 -178 0 -13 -37 c-8 -21 -16
-44 -18 -50 -4 -10 43 -13 214 -13 317 0 357 15 412 161 17 44 31 85 31 90 0
5 -71 9 -163 9 -90 0 -166 3 -170 6 -3 3 -1 19 5 35 l10 29 151 0 c84 0 157 4
162 8 6 4 18 26 27 50 l16 42 -186 -1 c-103 -1 -208 -5 -233 -9z"/>
<path d="M2920 1630 c0 -6 15 -26 33 -46 26 -29 42 -37 80 -41 26 -3 47 -6 47
-7 0 -1 -27 -73 -60 -160 -33 -87 -60 -160 -60 -162 0 -2 45 -4 99 -4 l99 0
26 68 c14 37 40 110 59 162 l34 95 88 5 88 5 13 35 c7 19 13 41 13 48 1 9 -61
12 -279 12 -183 0 -280 -4 -280 -10z"/>
<path d="M3500 1631 c0 -5 18 -25 40 -44 l40 -34 -36 -94 c-61 -157 -84 -223
-84 -237 0 -10 52 -12 247 -10 l248 3 11 25 c7 14 15 35 19 48 l6 22 -151 0
c-141 0 -152 1 -145 18 4 9 10 25 12 35 5 15 21 17 144 17 l139 0 15 36 c8 20
15 40 15 45 0 5 -58 9 -128 9 -71 0 -131 3 -135 6 -3 3 -1 19 5 35 11 33 -2
31 193 29 l121 -1 13 38 c8 21 16 44 18 51 4 9 -60 12 -301 12 -180 0 -306 -4
-306 -9z"/>
<path d="M4120 1634 c0 -4 18 -24 41 -45 l41 -38 -55 -143 c-31 -79 -59 -156
-62 -171 l-7 -28 98 3 98 3 47 120 c52 132 49 131 80 26 14 -49 17 -48 94 10
31 23 57 40 59 38 2 -2 -11 -42 -30 -89 -18 -47 -33 -91 -34 -97 0 -10 26 -13
99 -13 l99 0 15 43 c9 23 43 119 76 212 34 94 61 171 61 173 0 1 -43 2 -96 2
l-95 0 -85 -71 c-47 -39 -87 -69 -88 -68 -2 2 -12 33 -22 69 l-20 65 -157 3
c-86 1 -157 -1 -157 -4z"/>
<path d="M5005 1631 c-56 -10 -112 -39 -134 -70 -10 -14 -27 -53 -39 -86 -11
-33 -24 -68 -27 -77 -7 -17 5 -18 164 -18 94 0 171 -2 171 -4 0 -1 -5 -17 -11
-35 l-11 -31 -179 0 -179 0 -15 -36 c-28 -67 -36 -64 195 -64 322 0 353 12
412 155 21 50 37 93 38 98 0 4 -76 7 -170 7 -101 0 -170 4 -170 10 0 5 5 21
12 35 l11 25 144 0 c79 0 153 4 163 10 10 5 20 20 24 34 3 13 9 31 12 40 5 14
-14 16 -182 15 -104 -1 -207 -5 -229 -8z"/>
</g>
</svg>
