<?xml version="1.0" standalone="no"?>
<!DOCTYPE svg PUBLIC "-//W3C//DTD SVG 20010904//EN"
 "http://www.w3.org/TR/2001/REC-SVG-20010904/DTD/svg10.dtd">
<svg version="1.0" xmlns="http://www.w3.org/2000/svg"
 width="512.000000pt" height="512.000000pt" viewBox="0 0 512.000000 512.000000"
 preserveAspectRatio="xMidYMid meet">

<g transform="translate(0.000000,512.000000) scale(0.100000,-0.100000)"
fill="#000000" stroke="none">
<path d="M1173 4272 c-75 -27 -136 -81 -173 -155 l-30 -62 2 -1555 3 -1555 23
-40 c49 -83 112 -132 202 -159 48 -14 196 -16 1354 -16 1442 0 1363 -4 1459
66 52 38 102 108 117 165 7 24 9 584 8 1571 l-3 1533 -23 46 c-30 61 -92 124
-150 151 l-47 23 -1345 2 c-1272 2 -1348 2 -1397 -15z m1972 -411 c130 -33
221 -85 316 -180 69 -69 94 -103 127 -171 57 -117 72 -183 72 -314 0 -202 -60
-353 -196 -492 -64 -66 -58 -67 -114 26 -58 97 -174 193 -314 259 -84 41 -88
44 -81 69 4 15 9 78 12 141 4 87 1 129 -12 175 -61 227 -235 401 -472 472 -32
10 -62 21 -67 26 -6 4 141 8 325 8 290 0 343 -3 404 -19z m-977 -277 c123 -19
176 -35 267 -79 79 -38 153 -109 182 -174 17 -39 23 -157 10 -205 l-8 -29
-107 7 c-109 7 -390 -12 -522 -35 -126 -22 -246 -47 -345 -74 -97 -25 -126
-34 -210 -60 -22 -7 -52 -16 -67 -19 l-28 -6 0 310 0 310 23 5 c33 8 121 23
212 36 44 6 103 14 130 19 90 14 359 11 463 -6z m172 -823 c0 -10 -12 -23 -51
-56 -164 -138 -398 -277 -639 -381 -111 -47 -298 -113 -305 -106 -3 3 -5 78
-5 166 l0 162 33 12 c37 15 178 62 252 85 49 15 258 65 362 86 29 6 106 16
170 22 65 6 120 13 122 15 9 8 61 4 61 -5z m537 -64 c127 -53 215 -149 231
-248 9 -61 -1 -149 -23 -196 -8 -17 -15 -34 -15 -38 0 -4 -25 -45 -55 -90
-243 -366 -872 -706 -1559 -844 -55 -11 -103 -18 -108 -15 -4 3 -8 137 -8 297
l0 293 128 41 c507 163 936 411 1212 701 63 66 122 121 130 121 8 0 39 -10 67
-22z m613 -183 c84 -56 188 -184 237 -291 87 -190 85 -434 -7 -619 -70 -142
-188 -262 -325 -330 -139 -68 -129 -67 -579 -71 -255 -3 -406 -1 -402 5 3 5
32 23 64 39 189 97 464 296 624 451 156 152 270 322 320 477 35 108 45 259 22
338 -7 22 14 22 46 1z"/>
</g>
</svg>
